<mxfile host="app.diagrams.net" agent="Mozilla/5.0 (Macintosh; Intel Mac OS X 10_15_7) AppleWebKit/537.36 (KHTML, like Gecko) Chrome/136.0.0.0 Safari/537.36" scale="1" border="0" version="27.0.3">
  <diagram name="Page-1" id="5dqH0Yd1AtKZF-A6hB0Q">
    <mxGraphModel dx="1234" dy="790" grid="1" gridSize="10" guides="1" tooltips="1" connect="1" arrows="1" fold="1" page="1" pageScale="1" pageWidth="827" pageHeight="1169" math="0" shadow="0">
      <root>
        <mxCell id="0" />
        <mxCell id="1" parent="0" />
        <mxCell id="pcdmz5uSIQSE9vLNXjYA-1" value="" style="rounded=0;whiteSpace=wrap;html=1;strokeColor=none;" vertex="1" parent="1">
          <mxGeometry x="240" y="30" width="600" height="260" as="geometry" />
        </mxCell>
        <mxCell id="H1E0yp2a1D0GTK6jngZc-1" value="&lt;b&gt;Application&lt;/b&gt;" style="rounded=1;whiteSpace=wrap;html=1;fillColor=#dae8fc;strokeColor=#6c8ebf;fontColor=#0066CC;" parent="1" vertex="1">
          <mxGeometry x="280" y="195" width="120" height="60" as="geometry" />
        </mxCell>
        <mxCell id="H1E0yp2a1D0GTK6jngZc-2" value="&lt;b&gt;&lt;font color=&quot;#3399ff&quot;&gt;Cache&lt;/font&gt;&lt;/b&gt;" style="rounded=1;whiteSpace=wrap;html=1;fillColor=#DDEAFF;strokeColor=#6c8ebf;fontColor=#A9C4EB;" parent="1" vertex="1">
          <mxGeometry x="480" y="195" width="120" height="60" as="geometry" />
        </mxCell>
        <mxCell id="H1E0yp2a1D0GTK6jngZc-3" value="&lt;b&gt;Database&lt;/b&gt;" style="rounded=1;whiteSpace=wrap;html=1;fillColor=#e1d5e7;strokeColor=#9673a6;fontColor=#7241A3;" parent="1" vertex="1">
          <mxGeometry x="680" y="195" width="120" height="60" as="geometry" />
        </mxCell>
        <mxCell id="H1E0yp2a1D0GTK6jngZc-4" value="" style="endArrow=classic;html=1;rounded=0;" parent="1" edge="1">
          <mxGeometry width="50" height="50" relative="1" as="geometry">
            <mxPoint x="414" y="224.69" as="sourcePoint" />
            <mxPoint x="460" y="224.69" as="targetPoint" />
          </mxGeometry>
        </mxCell>
        <mxCell id="H1E0yp2a1D0GTK6jngZc-5" value="1. Application writes data to cache" style="text;html=1;align=center;verticalAlign=middle;whiteSpace=wrap;rounded=0;fontSize=10;fontStyle=2" parent="1" vertex="1">
          <mxGeometry x="390" y="150" width="105" height="30" as="geometry" />
        </mxCell>
        <mxCell id="H1E0yp2a1D0GTK6jngZc-6" value="&lt;b style=&quot;font-size: 16px;&quot;&gt;Cache Write Back&lt;/b&gt;" style="text;html=1;align=center;verticalAlign=middle;whiteSpace=wrap;rounded=0;fontSize=16;" parent="1" vertex="1">
          <mxGeometry x="445" y="50" width="190" height="30" as="geometry" />
        </mxCell>
        <mxCell id="H1E0yp2a1D0GTK6jngZc-7" value="" style="endArrow=classic;html=1;rounded=0;dashed=1;" parent="1" edge="1">
          <mxGeometry width="50" height="50" relative="1" as="geometry">
            <mxPoint x="619.5" y="224.69" as="sourcePoint" />
            <mxPoint x="665.5" y="224.69" as="targetPoint" />
          </mxGeometry>
        </mxCell>
        <mxCell id="H1E0yp2a1D0GTK6jngZc-8" value="2. Application/Cache &lt;u&gt;asynchronously&lt;/u&gt; writes data to DB" style="text;html=1;align=center;verticalAlign=middle;whiteSpace=wrap;rounded=0;fontSize=10;fontStyle=2" parent="1" vertex="1">
          <mxGeometry x="580" y="150" width="105" height="30" as="geometry" />
        </mxCell>
      </root>
    </mxGraphModel>
  </diagram>
</mxfile>
